<svg id="wheel" style="transform: rotate(-90deg); height: 800px;" xmlns="http://www.w3.org/2000/svg" xmlns:xlink="http://www.w3.org/1999/xlink" viewBox="-101 -101 202 202">
	<defs></defs>
	<path d="M 60 0 L 100 0 A 100 100 0 0 1 99.80267284282715 6.279051952931337 L 59.88160370569629 3.7674311717588025 A 60 60 0 0 0 60 0" fill="#E4FEBF" stroke="black" stroke-width="0.2pt"></path>
	<text font-size="2.3pt" font-family="Arial, Sans serif" fill="black" x="97.7" y="1.15" text-anchor="end" transform="rotate(1.8 0,0)">Piney</text>
	<path d="M 59.88160370569629 3.7674311717588025 L 99.80267284282715 6.279051952931337 A 100 100 0 0 1 99.21147013144778 12.533323356430426 L 59.526882078868674 7.5199940138582555 A 60 60 0 0 0 59.88160370569629 3.7674311717588025" fill="#E1FFC2" stroke="black" stroke-width="0.2pt"></path>
	<text font-size="2.3pt" font-family="Arial, Sans serif" fill="black" x="97.7" y="1.15" text-anchor="end" transform="rotate(5.3999999999999995 0,0)">Woody</text>
	<path d="M 59.526882078868674 7.5199940138582555 L 99.21147013144778 12.533323356430426 A 100 100 0 0 1 98.22872507286887 18.73813145857246 L 58.93723504372132 11.242878875143475 A 60 60 0 0 0 59.526882078868674 7.5199940138582555" fill="#DEFEBF" stroke="black" stroke-width="0.2pt"></path>
	<text font-size="2.3pt" font-family="Arial, Sans serif" fill="black" x="97.7" y="1.15" text-anchor="end" transform="rotate(9 0,0)">Walnut</text>
	<path d="M 58.93723504372132 11.242878875143475 L 98.22872507286887 18.73813145857246 A 100 100 0 0 1 96.85831611286311 24.86898871648548 L 58.114989667717865 14.921393229891288 A 60 60 0 0 0 58.93723504372132 11.242878875143475" fill="#D9FDBD" stroke="black" stroke-width="0.2pt"></path>
	<text font-size="2.3pt" font-family="Arial, Sans serif" fill="black" x="97.7" y="1.15" text-anchor="end" transform="rotate(12.600000000000001 0,0)">Coconut</text>
	<path d="M 58.114989667717865 14.921393229891288 L 96.85831611286311 24.86898871648548 A 100 100 0 0 1 95.10565162951535 30.901699437494738 L 57.06339097770921 18.541019662496844 A 60 60 0 0 0 58.114989667717865 14.921393229891288" fill="#D7FDBF" stroke="black" stroke-width="0.2pt"></path>
	<text font-size="2.3pt" font-family="Arial, Sans serif" fill="black" x="97.7" y="1.15" text-anchor="end" transform="rotate(16.2 0,0)">Beany</text>
	<path d="M 57.06339097770921 18.541019662496844 L 95.10565162951535 30.901699437494738 A 100 100 0 0 1 92.97764858882513 36.8124552684678 L 55.78658915329508 22.087473161080677 A 60 60 0 0 0 57.06339097770921 18.541019662496844" fill="#D0FDBF" stroke="black" stroke-width="0.2pt"></path>
	<text font-size="2.3pt" font-family="Arial, Sans serif" fill="black" x="97.7" y="1.15" text-anchor="end" transform="rotate(19.800000000000004 0,0)">Almond</text>
	<path d="M 55.78658915329508 22.087473161080677 L 92.97764858882513 36.8124552684678 A 100 100 0 0 1 90.48270524660195 42.577929156507274 L 54.289623147961166 25.546757493904362 A 60 60 0 0 0 55.78658915329508 22.087473161080677" fill="#CEFFBD" stroke="black" stroke-width="0.2pt"></path>
	<text font-size="2.3pt" font-family="Arial, Sans serif" fill="black" x="97.7" y="1.15" text-anchor="end" transform="rotate(23.400000000000002 0,0)">Freshly cut grass</text>
	<path d="M 54.289623147961166 25.546757493904362 L 90.48270524660195 42.577929156507274 A 100 100 0 0 1 87.63066800438637 48.17536741017153 L 52.57840080263181 28.90522044610292 A 60 60 0 0 0 54.289623147961166 25.546757493904362" fill="#CAFEBE" stroke="black" stroke-width="0.2pt"></path>
	<text font-size="2.3pt" font-family="Arial, Sans serif" fill="black" x="97.7" y="1.15" text-anchor="end" transform="rotate(27.000000000000004 0,0)">Straw like</text>
	<path d="M 52.57840080263181 28.90522044610292 L 87.63066800438637 48.17536741017153 A 100 100 0 0 1 84.43279255020151 53.58267949789967 L 50.65967553012091 32.1496076987398 A 60 60 0 0 0 52.57840080263181 28.90522044610292" fill="#C7FDC1" stroke="black" stroke-width="0.2pt"></path>
	<text font-size="2.3pt" font-family="Arial, Sans serif" fill="black" x="97.7" y="1.15" text-anchor="end" transform="rotate(30.599999999999998 0,0)">Husky</text>
	<path d="M 50.65967553012091 32.1496076987398 L 84.43279255020151 53.58267949789967 A 100 100 0 0 1 80.90169943749474 58.778525229247315 L 48.54101966249685 35.26711513754839 A 60 60 0 0 0 50.65967553012091 32.1496076987398" fill="#C3FDC2" stroke="black" stroke-width="0.2pt"></path>
	<text font-size="2.3pt" font-family="Arial, Sans serif" fill="black" x="97.7" y="1.15" text-anchor="end" transform="rotate(34.2 0,0)">Corn grits</text>
	<path d="M 48.54101966249685 35.26711513754839 L 80.90169943749474 58.778525229247315 A 100 100 0 0 1 77.05132427757894 63.74239897486896 L 46.23079456654736 38.245439384921376 A 60 60 0 0 0 48.54101966249685 35.26711513754839" fill="#BFFEC0" stroke="black" stroke-width="0.2pt"></path>
	<text font-size="2.3pt" font-family="Arial, Sans serif" fill="black" x="97.7" y="1.15" text-anchor="end" transform="rotate(37.8 0,0)">Mealy</text>
	<path d="M 15.410264855515788 12.748479794973793 L 77.05132427757894 63.74239897486896 A 100 100 0 0 1 72.89686274214117 68.45471059286885 L 14.579372548428234 13.69094211857377 A 20 20 0 0 0 15.410264855515788 12.748479794973793" fill="#7EFD88" stroke="black" stroke-width="0.4pt"></path>
	<text font-size="2.3pt" font-family="Arial, Sans serif" fill="black" x="97.7" y="1.15" text-anchor="end" transform="rotate(41.4 0,0)">Malty</text>
	<path d="M 14.579372548428234 13.69094211857377 L 72.89686274214117 68.45471059286885 A 100 100 0 0 1 68.45471059286888 72.89686274214114 L 13.690942118573776 14.579372548428228 A 20 20 0 0 0 14.579372548428234 13.69094211857377" fill="#7EFD90" stroke="black" stroke-width="0.4pt"></path>
	<text font-size="2.3pt" font-family="Arial, Sans serif" fill="black" x="97.7" y="1.15" text-anchor="end" transform="rotate(44.99999999999999 0,0)">Worty</text>
	<path d="M 41.07282635572133 43.73811764528469 L 68.45471059286888 72.89686274214114 A 100 100 0 0 1 63.74239897486898 77.05132427757891 L 38.24543938492139 46.230794566547345 A 60 60 0 0 0 41.07282635572133 43.73811764528469" fill="#BFFECA" stroke="black" stroke-width="0.2pt"></path>
	<text font-size="2.3pt" font-family="Arial, Sans serif" fill="black" x="97.7" y="1.15" text-anchor="end" transform="rotate(48.599999999999994 0,0)">Molasses</text>
	<path d="M 38.24543938492139 46.230794566547345 L 63.74239897486898 77.05132427757891 A 100 100 0 0 1 58.778525229247315 80.90169943749474 L 35.26711513754839 48.54101966249685 A 60 60 0 0 0 38.24543938492139 46.230794566547345" fill="#BFFED1" stroke="black" stroke-width="0.2pt"></path>
	<text font-size="2.3pt" font-family="Arial, Sans serif" fill="black" x="97.7" y="1.15" text-anchor="end" transform="rotate(52.199999999999996 0,0)">Licorice</text>
	<path d="M 35.26711513754839 48.54101966249685 L 58.778525229247315 80.90169943749474 A 100 100 0 0 1 53.582679497899655 84.43279255020151 L 32.14960769873979 50.65967553012091 A 60 60 0 0 0 35.26711513754839 48.54101966249685" fill="#C0FED4" stroke="black" stroke-width="0.2pt"></path>
	<text font-size="2.3pt" font-family="Arial, Sans serif" fill="black" x="97.7" y="1.15" text-anchor="end" transform="rotate(55.8 0,0)">Bread crust</text>
	<path d="M 32.14960769873979 50.65967553012091 L 53.582679497899655 84.43279255020151 A 100 100 0 0 1 48.17536741017152 87.63066800438637 L 28.90522044610291 52.57840080263182 A 60 60 0 0 0 32.14960769873979 50.65967553012091" fill="#BEFEDC" stroke="black" stroke-width="0.2pt"></path>
	<text font-size="2.3pt" font-family="Arial, Sans serif" fill="black" x="97.7" y="1.15" text-anchor="end" transform="rotate(59.400000000000006 0,0)">Roast barley</text>
	<path d="M 28.90522044610291 52.57840080263182 L 48.17536741017152 87.63066800438637 A 100 100 0 0 1 42.57792915650727 90.48270524660195 L 25.54675749390436 54.28962314796117 A 60 60 0 0 0 28.90522044610291 52.57840080263182" fill="#BEFEDC" stroke="black" stroke-width="0.2pt"></path>
	<text font-size="2.3pt" font-family="Arial, Sans serif" fill="black" x="97.7" y="1.15" text-anchor="end" transform="rotate(63.00000000000001 0,0)">Smokey</text>
	<path d="M 25.54675749390436 54.28962314796117 L 42.57792915650727 90.48270524660195 A 100 100 0 0 1 36.81245526846779 92.97764858882515 L 22.087473161080673 55.78658915329509 A 60 60 0 0 0 25.54675749390436 54.28962314796117" fill="#80FEBF" stroke="black" stroke-width="0.4pt"></path>
	<text font-size="2.3pt" font-family="Arial, Sans serif" fill="black" x="97.7" y="1.15" text-anchor="end" transform="rotate(66.60000000000001 0,0)">Tarry</text>
	<path d="M 22.087473161080673 55.78658915329509 L 36.81245526846779 92.97764858882515 A 100 100 0 0 1 30.901699437494727 95.10565162951536 L 18.541019662496836 57.06339097770922 A 60 60 0 0 0 22.087473161080673 55.78658915329509" fill="#80FEC6" stroke="black" stroke-width="0.4pt"></path>
	<text font-size="2.3pt" font-family="Arial, Sans serif" fill="black" x="97.7" y="1.15" text-anchor="end" transform="rotate(70.20000000000002 0,0)">Bakelite</text>
	<path d="M 18.541019662496836 57.06339097770922 L 30.901699437494727 95.10565162951536 A 100 100 0 0 1 24.868988716485454 96.85831611286312 L 14.921393229891272 58.11498966771787 A 60 60 0 0 0 18.541019662496836 57.06339097770922" fill="#80FDCC" stroke="black" stroke-width="0.4pt"></path>
	<text font-size="2.3pt" font-family="Arial, Sans serif" fill="black" x="97.7" y="1.15" text-anchor="end" transform="rotate(73.80000000000001 0,0)">Carbolic</text>
	<path d="M 14.921393229891272 58.11498966771787 L 24.868988716485454 96.85831611286312 A 100 100 0 0 1 18.73813145857243 98.22872507286887 L 11.242878875143457 58.93723504372132 A 60 60 0 0 0 14.921393229891272 58.11498966771787" fill="#7FFDD4" stroke="black" stroke-width="0.4pt"></path>
	<text font-size="2.3pt" font-family="Arial, Sans serif" fill="black" x="97.7" y="1.15" text-anchor="end" transform="rotate(77.40000000000002 0,0)">Chlorophenol</text>
	<path d="M 11.242878875143457 58.93723504372132 L 18.73813145857243 98.22872507286887 A 100 100 0 0 1 12.533323356430381 99.21147013144778 L 7.519994013858229 59.526882078868674 A 60 60 0 0 0 11.242878875143457 58.93723504372132" fill="#80FDDE" stroke="black" stroke-width="0.4pt"></path>
	<text font-size="2.3pt" font-family="Arial, Sans serif" fill="black" x="97.7" y="1.15" text-anchor="end" transform="rotate(81.00000000000003 0,0)">Isodoform</text>
	<path d="M 7.519994013858229 59.526882078868674 L 12.533323356430381 99.21147013144778 A 100 100 0 0 1 6.279051952931286 99.80267284282715 L 3.767431171758772 59.88160370569629 A 60 60 0 0 0 7.519994013858229 59.526882078868674" fill="#BFFEF2" stroke="black" stroke-width="0.2pt"></path>
	<text font-size="2.3pt" font-family="Arial, Sans serif" fill="black" x="97.7" y="1.15" text-anchor="end" transform="rotate(84.60000000000002 0,0)">Caprylic</text>
	<path d="M 3.767431171758772 59.88160370569629 L 6.279051952931286 99.80267284282715 A 100 100 0 0 1 -3.828568698926949e-14 100 L -2.2971412193561696e-14 60 A 60 60 0 0 0 3.767431171758772 59.88160370569629" fill="#BFFEF6" stroke="black" stroke-width="0.2pt"></path>
	<text font-size="2.3pt" font-family="Arial, Sans serif" fill="black" x="97.7" y="1.15" text-anchor="end" transform="rotate(88.20000000000002 0,0)">Cheesy</text>
	<path d="M -2.2971412193561696e-14 60 L -3.828568698926949e-14 100 A 100 100 0 0 1 -6.279051952931362 99.80267284282715 L -3.7674311717588176 59.88160370569629 A 60 60 0 0 0 -2.2971412193561696e-14 60" fill="#BDFEFB" stroke="black" stroke-width="0.2pt"></path>
	<text font-size="2.3pt" font-family="Arial, Sans serif" fill="black" x="97.7" y="1.15" text-anchor="end" transform="rotate(91.80000000000003 0,0)">Isovaleric</text>
	<path d="M -3.7674311717588176 59.88160370569629 L -6.279051952931362 99.80267284282715 A 100 100 0 0 1 -12.533323356430456 99.21147013144778 L -7.519994013858274 59.52688207886867 A 60 60 0 0 0 -3.7674311717588176 59.88160370569629" fill="#C0FEFF" stroke="black" stroke-width="0.2pt"></path>
	<text font-size="2.3pt" font-family="Arial, Sans serif" fill="black" x="97.7" y="1.15" text-anchor="end" transform="rotate(95.40000000000002 0,0)">Butyric</text>
	<path d="M -2.5066646712860914 19.842294026289554 L -12.533323356430456 99.21147013144778 A 100 100 0 0 1 -18.738131458572504 98.22872507286885 L -3.747626291714501 19.645745014573773 A 20 20 0 0 0 -2.5066646712860914 19.842294026289554" fill="#80FAFE" stroke="black" stroke-width="0.4pt"></path>
	<text font-size="2.3pt" font-family="Arial, Sans serif" fill="black" x="97.7" y="1.15" text-anchor="end" transform="rotate(99.00000000000003 0,0)">Diacetyl</text>
	<path d="M -3.747626291714501 19.645745014573773 L -18.738131458572504 98.22872507286885 A 100 100 0 0 1 -24.868988716485525 96.8583161128631 L -4.973797743297105 19.371663222572618 A 20 20 0 0 0 -3.747626291714501 19.645745014573773" fill="#83F3FF" stroke="black" stroke-width="0.4pt"></path>
	<text font-size="2.3pt" font-family="Arial, Sans serif" fill="black" x="97.7" y="1.15" text-anchor="end" transform="rotate(102.60000000000004 0,0)">Rancid</text>
	<path d="M -14.921393229891317 58.11498966771786 L -24.868988716485525 96.8583161128631 A 100 100 0 0 1 -30.901699437494802 95.10565162951534 L -18.54101966249688 57.063390977709204 A 60 60 0 0 0 -14.921393229891317 58.11498966771786" fill="#C0F5FD" stroke="black" stroke-width="0.2pt"></path>
	<text font-size="2.3pt" font-family="Arial, Sans serif" fill="black" x="97.7" y="1.15" text-anchor="end" transform="rotate(106.20000000000003 0,0)">Vegetable oil</text>
	<path d="M -18.54101966249688 57.063390977709204 L -30.901699437494802 95.10565162951534 A 100 100 0 0 1 -36.81245526846786 92.97764858882512 L -22.087473161080716 55.78658915329507 A 60 60 0 0 0 -18.54101966249688 57.063390977709204" fill="#BFF1FC" stroke="black" stroke-width="0.2pt"></path>
	<text font-size="2.3pt" font-family="Arial, Sans serif" fill="black" x="97.7" y="1.15" text-anchor="end" transform="rotate(109.80000000000004 0,0)">Mineral oil</text>
	<path d="M -22.087473161080716 55.78658915329507 L -36.81245526846786 92.97764858882512 A 100 100 0 0 1 -42.57792915650732 90.48270524660194 L -25.54675749390439 54.28962314796116 A 60 60 0 0 0 -22.087473161080716 55.78658915329507" fill="#BEEDFD" stroke="black" stroke-width="0.2pt"></path>
	<text font-size="2.3pt" font-family="Arial, Sans serif" fill="black" x="97.7" y="1.15" text-anchor="end" transform="rotate(113.40000000000003 0,0)">Striking match</text>
	<path d="M -25.54675749390439 54.28962314796116 L -42.57792915650732 90.48270524660194 A 100 100 0 0 1 -48.17536741017158 87.63066800438632 L -28.90522044610295 52.5784008026318 A 60 60 0 0 0 -25.54675749390439 54.28962314796116" fill="#C1EAFE" stroke="black" stroke-width="0.2pt"></path>
	<text font-size="2.3pt" font-family="Arial, Sans serif" fill="black" x="97.7" y="1.15" text-anchor="end" transform="rotate(117.00000000000004 0,0)">Meaty</text>
	<path d="M -28.90522044610295 52.5784008026318 L -48.17536741017158 87.63066800438632 A 100 100 0 0 1 -53.58267949789972 84.43279255020147 L -32.149607698739835 50.659675530120886 A 60 60 0 0 0 -28.90522044610295 52.5784008026318" fill="#BEE6FE" stroke="black" stroke-width="0.2pt"></path>
	<text font-size="2.3pt" font-family="Arial, Sans serif" fill="black" x="97.7" y="1.15" text-anchor="end" transform="rotate(120.60000000000005 0,0)">HydrogenSulfide</text>
	<path d="M -32.149607698739835 50.659675530120886 L -53.58267949789972 84.43279255020147 A 100 100 0 0 1 -58.77852522924738 80.9016994374947 L -35.26711513754843 48.54101966249682 A 60 60 0 0 0 -32.149607698739835 50.659675530120886" fill="#BFE3FD" stroke="black" stroke-width="0.2pt"></path>
	<text font-size="2.3pt" font-family="Arial, Sans serif" fill="black" x="97.7" y="1.15" text-anchor="end" transform="rotate(124.20000000000005 0,0)">Mercaptan</text>
	<path d="M -35.26711513754843 48.54101966249682 L -58.77852522924738 80.9016994374947 A 100 100 0 0 1 -63.74239897486904 77.05132427757887 L -38.245439384921426 46.230794566547324 A 60 60 0 0 0 -35.26711513754843 48.54101966249682" fill="#BDDFFC" stroke="black" stroke-width="0.2pt"></path>
	<text font-size="2.3pt" font-family="Arial, Sans serif" fill="black" x="97.7" y="1.15" text-anchor="end" transform="rotate(127.80000000000005 0,0)">Garlic</text>
	<path d="M -38.245439384921426 46.230794566547324 L -63.74239897486904 77.05132427757887 A 100 100 0 0 1 -68.45471059286893 72.89686274214108 L -41.07282635572136 43.73811764528465 A 60 60 0 0 0 -38.245439384921426 46.230794566547324" fill="#BEDBFE" stroke="black" stroke-width="0.2pt"></path>
	<text font-size="2.3pt" font-family="Arial, Sans serif" fill="black" x="97.7" y="1.15" text-anchor="end" transform="rotate(131.40000000000006 0,0)">Lightstruck</text>
	<path d="M -41.07282635572136 43.73811764528465 L -68.45471059286893 72.89686274214108 A 100 100 0 0 1 -72.89686274214122 68.45471059286879 L -43.73811764528473 41.072826355721276 A 60 60 0 0 0 -41.07282635572136 43.73811764528465" fill="#BFD8FE" stroke="black" stroke-width="0.2pt"></path>
	<text font-size="2.3pt" font-family="Arial, Sans serif" fill="black" x="97.7" y="1.15" text-anchor="end" transform="rotate(135.00000000000006 0,0)">Autolysed</text>
	<path d="M -43.73811764528473 41.072826355721276 L -72.89686274214122 68.45471059286879 A 100 100 0 0 1 -77.051324277579 63.742398974868884 L -46.230794566547395 38.24543938492133 A 60 60 0 0 0 -43.73811764528473 41.072826355721276" fill="#C1D2FD" stroke="black" stroke-width="0.2pt"></path>
	<text font-size="2.3pt" font-family="Arial, Sans serif" fill="black" x="97.7" y="1.15" text-anchor="end" transform="rotate(138.60000000000005 0,0)">Burnt rubber</text>
	<path d="M -46.230794566547395 38.24543938492133 L -77.051324277579 63.742398974868884 A 100 100 0 0 1 -80.90169943749481 58.778525229247215 L -48.541019662496886 35.26711513754833 A 60 60 0 0 0 -46.230794566547395 38.24543938492133" fill="#BED0FE" stroke="black" stroke-width="0.2pt"></path>
	<text font-size="2.3pt" font-family="Arial, Sans serif" fill="black" x="97.7" y="1.15" text-anchor="end" transform="rotate(142.20000000000007 0,0)">Shrimp like</text>
	<path d="M -48.541019662496886 35.26711513754833 L -80.90169943749481 58.778525229247215 A 100 100 0 0 1 -84.43279255020157 53.582679497899555 L -50.65967553012094 32.149607698739736 A 60 60 0 0 0 -48.541019662496886 35.26711513754833" fill="#BECAFE" stroke="black" stroke-width="0.2pt"></path>
	<text font-size="2.3pt" font-family="Arial, Sans serif" fill="black" x="97.7" y="1.15" text-anchor="end" transform="rotate(145.80000000000007 0,0)">Parsnip/Celery</text>
	<path d="M -50.65967553012094 32.149607698739736 L -84.43279255020157 53.582679497899555 A 100 100 0 0 1 -87.63066800438642 48.175367410171404 L -52.578400802631855 28.90522044610284 A 60 60 0 0 0 -50.65967553012094 32.149607698739736" fill="#BFC8FF" stroke="black" stroke-width="0.2pt"></path>
	<text font-size="2.3pt" font-family="Arial, Sans serif" fill="black" x="97.7" y="1.15" text-anchor="end" transform="rotate(149.40000000000006 0,0)">Dimethyl sulfide</text>
	<path d="M -52.578400802631855 28.90522044610284 L -87.63066800438642 48.175367410171404 A 100 100 0 0 1 -90.482705246602 42.577929156507174 L -54.2896231479612 25.546757493904302 A 60 60 0 0 0 -52.578400802631855 28.90522044610284" fill="#BFC3FD" stroke="black" stroke-width="0.2pt"></path>
	<text font-size="2.3pt" font-family="Arial, Sans serif" fill="black" x="97.7" y="1.15" text-anchor="end" transform="rotate(153.00000000000009 0,0)">Cooked cabbage</text>
	<path d="M -54.2896231479612 25.546757493904302 L -90.482705246602 42.577929156507174 A 100 100 0 0 1 -92.97764858882518 36.812455268467694 L -55.78658915329511 22.087473161080617 A 60 60 0 0 0 -54.2896231479612 25.546757493904302" fill="#BFBFFE" stroke="black" stroke-width="0.2pt"></path>
	<text font-size="2.3pt" font-family="Arial, Sans serif" fill="black" x="97.7" y="1.15" text-anchor="end" transform="rotate(156.60000000000008 0,0)">Cooked sweet corn</text>
	<path d="M -55.78658915329511 22.087473161080617 L -92.97764858882518 36.812455268467694 A 100 100 0 0 1 -95.10565162951539 30.901699437494628 L -57.06339097770924 18.541019662496776 A 60 60 0 0 0 -55.78658915329511 22.087473161080617" fill="#C2BDFD" stroke="black" stroke-width="0.2pt"></path>
	<text font-size="2.3pt" font-family="Arial, Sans serif" fill="black" x="97.7" y="1.15" text-anchor="end" transform="rotate(160.20000000000007 0,0)">Cooked tomato</text>
	<path d="M -57.06339097770924 18.541019662496776 L -95.10565162951539 30.901699437494628 A 100 100 0 0 1 -96.85831611286314 24.86898871648535 L -58.114989667717886 14.921393229891212 A 60 60 0 0 0 -57.06339097770924 18.541019662496776" fill="#C5BFFD" stroke="black" stroke-width="0.2pt"></path>
	<text font-size="2.3pt" font-family="Arial, Sans serif" fill="black" x="97.7" y="1.15" text-anchor="end" transform="rotate(163.8000000000001 0,0)">Cooked onion</text>
	<path d="M -19.37166322257263 4.97379774329707 L -96.85831611286314 24.86898871648535 A 100 100 0 0 1 -98.2287250728689 18.738131458572326 L -19.64574501457378 3.7476262917144654 A 20 20 0 0 0 -19.37166322257263 4.97379774329707" fill="#947FFE" stroke="black" stroke-width="0.4pt"></path>
	<text font-size="2.3pt" font-family="Arial, Sans serif" fill="black" x="97.7" y="1.15" text-anchor="end" transform="rotate(167.4000000000001 0,0)">Yeasty</text>
	<path d="M -19.64574501457378 3.7476262917144654 L -98.2287250728689 18.738131458572326 A 100 100 0 0 1 -99.2114701314478 12.533323356430278 L -19.842294026289558 2.506664671286056 A 20 20 0 0 0 -19.64574501457378 3.7476262917144654" fill="#9D7FFD" stroke="black" stroke-width="0.4pt"></path>
	<text font-size="2.3pt" font-family="Arial, Sans serif" fill="black" x="97.7" y="1.15" text-anchor="end" transform="rotate(171.00000000000009 0,0)">Catty</text>
	<path d="M -19.842294026289558 2.506664671286056 L -99.2114701314478 12.533323356430278 A 100 100 0 0 1 -99.80267284282716 6.27905195293118 L -19.960534568565432 1.2558103905862361 A 20 20 0 0 0 -19.842294026289558 2.506664671286056" fill="#A380F9" stroke="black" stroke-width="0.4pt"></path>
	<text font-size="2.3pt" font-family="Arial, Sans serif" fill="black" x="97.7" y="1.15" text-anchor="end" transform="rotate(174.6000000000001 0,0)">Papery</text>
	<path d="M -19.960534568565432 1.2558103905862361 L -99.80267284282716 6.27905195293118 A 100 100 0 0 1 -100 -1.2098029496354524e-13 L -20 -2.419605899270905e-14 A 20 20 0 0 0 -19.960534568565432 1.2558103905862361" fill="#AC80FE" stroke="black" stroke-width="0.4pt"></path>
	<text font-size="2.3pt" font-family="Arial, Sans serif" fill="black" x="97.7" y="1.15" text-anchor="end" transform="rotate(178.20000000000007 0,0)">Leathery</text>
	<path d="M -60 -7.258817697812715e-14 L -100 -1.2098029496354524e-13 A 100 100 0 0 1 -99.80267284282715 -6.279051952931466 L -59.881603705696286 -3.7674311717588798 A 60 60 0 0 0 -60 -7.258817697812715e-14" fill="#D9C0FD" stroke="black" stroke-width="0.2pt"></path>
	<text font-size="2.3pt" font-family="Arial, Sans serif" fill="black" x="97.7" y="1.15" text-anchor="end" transform="rotate(181.80000000000007 0,0)">Earthy</text>
	<path d="M -59.881603705696286 -3.7674311717588798 L -99.80267284282715 -6.279051952931466 A 100 100 0 0 1 -99.21147013144777 -12.533323356430563 L -59.52688207886866 -7.519994013858337 A 60 60 0 0 0 -59.881603705696286 -3.7674311717588798" fill="#DEBFFF" stroke="black" stroke-width="0.2pt"></path>
	<text font-size="2.3pt" font-family="Arial, Sans serif" fill="black" x="97.7" y="1.15" text-anchor="end" transform="rotate(185.4000000000001 0,0)">Musty</text>
	<path d="M -59.52688207886866 -7.519994013858337 L -99.21147013144777 -12.533323356430563 A 100 100 0 0 1 -98.22872507286884 -18.738131458572607 L -58.9372350437213 -11.242878875143564 A 60 60 0 0 0 -59.52688207886866 -7.519994013858337" fill="#C380FC" stroke="black" stroke-width="0.4pt"></path>
	<text font-size="2.3pt" font-family="Arial, Sans serif" fill="black" x="97.7" y="1.15" text-anchor="end" transform="rotate(189.00000000000009 0,0)">Acetic</text>
	<path d="M -58.9372350437213 -11.242878875143564 L -98.22872507286884 -18.738131458572607 A 100 100 0 0 1 -96.85831611286308 -24.868988716485628 L -58.11498966771784 -14.921393229891377 A 60 60 0 0 0 -58.9372350437213 -11.242878875143564" fill="#CE80F7" stroke="black" stroke-width="0.4pt"></path>
	<text font-size="2.3pt" font-family="Arial, Sans serif" fill="black" x="97.7" y="1.15" text-anchor="end" transform="rotate(192.60000000000008 0,0)">Sour</text>
	<path d="M -58.11498966771784 -14.921393229891377 L -96.85831611286308 -24.868988716485628 A 100 100 0 0 1 -95.10565162951531 -30.9016994374949 L -57.06339097770918 -18.54101966249694 A 60 60 0 0 0 -58.11498966771784 -14.921393229891377" fill="#D37FFF" stroke="black" stroke-width="0.4pt"></path>
	<text font-size="2.3pt" font-family="Arial, Sans serif" fill="black" x="97.7" y="1.15" text-anchor="end" transform="rotate(196.2000000000001 0,0)">Honey</text>
	<path d="M -57.06339097770918 -18.54101966249694 L -95.10565162951531 -30.9016994374949 A 100 100 0 0 1 -92.97764858882508 -36.81245526846796 L -55.78658915329505 -22.087473161080776 A 60 60 0 0 0 -57.06339097770918 -18.54101966249694" fill="#DA7FFB" stroke="black" stroke-width="0.4pt"></path>
	<text font-size="2.3pt" font-family="Arial, Sans serif" fill="black" x="97.7" y="1.15" text-anchor="end" transform="rotate(199.8000000000001 0,0)">Jam-Like</text>
	<path d="M -55.78658915329505 -22.087473161080776 L -92.97764858882508 -36.81245526846796 A 100 100 0 0 1 -90.48270524660188 -42.57792915650743 L -54.28962314796113 -25.546757493904455 A 60 60 0 0 0 -55.78658915329505 -22.087473161080776" fill="#E37FFE" stroke="black" stroke-width="0.4pt"></path>
	<text font-size="2.3pt" font-family="Arial, Sans serif" fill="black" x="97.7" y="1.15" text-anchor="end" transform="rotate(203.4000000000001 0,0)">Vanilla</text>
	<path d="M -54.28962314796113 -25.546757493904455 L -90.48270524660188 -42.57792915650743 A 100 100 0 0 1 -87.63066800438627 -48.175367410171695 L -52.57840080263176 -28.905220446103016 A 60 60 0 0 0 -54.28962314796113 -25.546757493904455" fill="#E980FC" stroke="black" stroke-width="0.4pt"></path>
	<text font-size="2.3pt" font-family="Arial, Sans serif" fill="black" x="97.7" y="1.15" text-anchor="end" transform="rotate(207.0000000000001 0,0)">Primings</text>
	<path d="M -52.57840080263176 -28.905220446103016 L -87.63066800438627 -48.175367410171695 A 100 100 0 0 1 -84.43279255020143 -53.58267949789979 L -50.65967553012086 -32.14960769873987 A 60 60 0 0 0 -52.57840080263176 -28.905220446103016" fill="#F17FFD" stroke="black" stroke-width="0.4pt"></path>
	<text font-size="2.3pt" font-family="Arial, Sans serif" fill="black" x="97.7" y="1.15" text-anchor="end" transform="rotate(210.6000000000001 0,0)">Syrupy</text>
	<path d="M -50.65967553012086 -32.14960769873987 L -84.43279255020143 -53.58267949789979 A 100 100 0 0 1 -80.90169943749464 -58.77852522924745 L -48.54101966249679 -35.267115137548465 A 60 60 0 0 0 -50.65967553012086 -32.14960769873987" fill="#FA7FFE" stroke="black" stroke-width="0.4pt"></path>
	<text font-size="2.3pt" font-family="Arial, Sans serif" fill="black" x="97.7" y="1.15" text-anchor="end" transform="rotate(214.2000000000001 0,0)">Oversweet</text>
	<path d="M -16.180339887498928 -11.755705045849488 L -80.90169943749464 -58.77852522924745 A 100 100 0 0 1 -77.05132427757881 -63.742398974869104 L -15.410264855515763 -12.748479794973822 A 20 20 0 0 0 -16.180339887498928 -11.755705045849488" fill="#FC01F9" stroke="black" stroke-width="0.4pt"></path>
	<text font-size="2.3pt" font-family="Arial, Sans serif" fill="black" font-weight="bold" x="97.7" y="1.15" text-anchor="end" transform="rotate(217.80000000000013 0,0)">Salty</text>
	<path d="M -15.410264855515763 -12.748479794973822 L -77.05132427757881 -63.742398974869104 A 100 100 0 0 1 -72.89686274214102 -68.45471059286899 L -14.579372548428204 -13.6909421185738 A 20 20 0 0 0 -15.410264855515763 -12.748479794973822" fill="#FD00EC" stroke="black" stroke-width="0.4pt"></path>
	<text font-size="2.3pt" font-family="Arial, Sans serif" fill="black" font-weight="bold" x="97.7" y="1.15" text-anchor="end" transform="rotate(221.40000000000012 0,0)">Bitter</text>
	<path d="M -14.579372548428204 -13.6909421185738 L -72.89686274214102 -68.45471059286899 A 100 100 0 0 1 -68.45471059286872 -72.89686274214128 L -13.690942118573746 -14.579372548428255 A 20 20 0 0 0 -14.579372548428204 -13.6909421185738" fill="#FB80ED" stroke="black" stroke-width="0.4pt"></path>
	<text font-size="2.3pt" font-family="Arial, Sans serif" fill="black" x="97.7" y="1.15" text-anchor="end" transform="rotate(225.0000000000001 0,0)">Alkaline</text>
	<path d="M -13.690942118573746 -14.579372548428255 L -68.45471059286872 -72.89686274214128 A 100 100 0 0 1 -63.74239897486882 -77.05132427757904 L -12.748479794973765 -15.410264855515809 A 20 20 0 0 0 -13.690942118573746 -14.579372548428255" fill="#FD7FE6" stroke="black" stroke-width="0.4pt"></path>
	<text font-size="2.3pt" font-family="Arial, Sans serif" fill="black" x="97.7" y="1.15" text-anchor="end" transform="rotate(228.60000000000014 0,0)">Mouthcoating</text>
	<path d="M -12.748479794973765 -15.410264855515809 L -63.74239897486882 -77.05132427757904 A 100 100 0 0 1 -58.778525229247116 -80.90169943749488 L -11.755705045849423 -16.180339887498977 A 20 20 0 0 0 -12.748479794973765 -15.410264855515809" fill="#FE80DC" stroke="black" stroke-width="0.4pt"></path>
	<text font-size="2.3pt" font-family="Arial, Sans serif" fill="black" x="97.7" y="1.15" text-anchor="end" transform="rotate(232.20000000000013 0,0)">Metallic</text>
	<path d="M -35.26711513754827 -48.541019662496936 L -58.778525229247116 -80.90169943749488 A 100 100 0 0 1 -53.58267949789948 -84.43279255020163 L -32.149607698739686 -50.65967553012098 A 60 60 0 0 0 -35.26711513754827 -48.541019662496936" fill="#FDBEE9" stroke="black" stroke-width="0.2pt"></path>
	<text font-size="2.3pt" font-family="Arial, Sans serif" fill="black" x="97.7" y="1.15" text-anchor="end" transform="rotate(235.80000000000013 0,0)">Drying</text>
	<path d="M -32.149607698739686 -50.65967553012098 L -53.58267949789948 -84.43279255020163 A 100 100 0 0 1 -48.17536741017137 -87.63066800438645 L -28.905220446102824 -52.57840080263187 A 60 60 0 0 0 -32.149607698739686 -50.65967553012098" fill="#FEBEE9" stroke="black" stroke-width="0.2pt"></path>
	<text font-size="2.3pt" font-family="Arial, Sans serif" fill="black" x="97.7" y="1.15" text-anchor="end" transform="rotate(239.40000000000012 0,0)">Tart</text>
	<path d="M -28.905220446102824 -52.57840080263187 L -48.17536741017137 -87.63066800438645 A 100 100 0 0 1 -42.577929156507054 -90.48270524660205 L -25.546757493904234 -54.28962314796123 A 60 60 0 0 0 -28.905220446102824 -52.57840080263187" fill="#FCBFE3" stroke="black" stroke-width="0.2pt"></path>
	<text font-size="2.3pt" font-family="Arial, Sans serif" fill="black" x="97.7" y="1.15" text-anchor="end" transform="rotate(243.00000000000014 0,0)">Puckering</text>
	<path d="M -8.515585831301411 -18.096541049320408 L -42.577929156507054 -90.48270524660205 A 100 100 0 0 1 -36.812455268467616 -92.97764858882522 L -7.362491053693523 -18.595529717765043 A 20 20 0 0 0 -8.515585831301411 -18.096541049320408" fill="#FE7FBF" stroke="black" stroke-width="0.4pt"></path>
	<text font-size="2.3pt" font-family="Arial, Sans serif" fill="black" x="97.7" y="1.15" text-anchor="end" transform="rotate(246.60000000000014 0,0)">Powdery</text>
	<path d="M -22.087473161080567 -55.786589153295125 L -36.812455268467616 -92.97764858882522 A 100 100 0 0 1 -30.901699437494507 -95.10565162951544 L -18.541019662496705 -57.06339097770926 A 60 60 0 0 0 -22.087473161080567 -55.786589153295125" fill="#FDBDDD" stroke="black" stroke-width="0.2pt"></path>
	<text font-size="2.3pt" font-family="Arial, Sans serif" fill="black" x="97.7" y="1.15" text-anchor="end" transform="rotate(250.20000000000013 0,0)">Flat</text>
	<path d="M -18.541019662496705 -57.06339097770926 L -30.901699437494507 -95.10565162951544 A 100 100 0 0 1 -24.868988716485273 -96.85831611286316 L -14.921393229891162 -58.1149896677179 A 60 60 0 0 0 -18.541019662496705 -57.06339097770926" fill="#FFBFDA" stroke="black" stroke-width="0.2pt"></path>
	<text font-size="2.3pt" font-family="Arial, Sans serif" fill="black" x="97.7" y="1.15" text-anchor="end" transform="rotate(253.80000000000015 0,0)">Gassy</text>
	<path d="M -14.921393229891162 -58.1149896677179 L -24.868988716485273 -96.85831611286316 A 100 100 0 0 1 -18.7381314585722 -98.22872507286891 L -11.24287887514332 -58.93723504372135 A 60 60 0 0 0 -14.921393229891162 -58.1149896677179" fill="#FDC0D5" stroke="black" stroke-width="0.2pt"></path>
	<text font-size="2.3pt" font-family="Arial, Sans serif" fill="black" x="97.7" y="1.15" text-anchor="end" transform="rotate(257.40000000000015 0,0)">Alcoholic</text>
	<path d="M -11.24287887514332 -58.93723504372135 L -18.7381314585722 -98.22872507286891 A 100 100 0 0 1 -12.533323356430195 -99.21147013144781 L -7.519994013858117 -59.52688207886869 A 60 60 0 0 0 -11.24287887514332 -58.93723504372135" fill="#FCBDCE" stroke="black" stroke-width="0.2pt"></path>
	<text font-size="2.3pt" font-family="Arial, Sans serif" fill="black" x="97.7" y="1.15" text-anchor="end" transform="rotate(261.00000000000017 0,0)">Piquant</text>
	<path d="M -7.519994013858117 -59.52688207886869 L -12.533323356430195 -99.21147013144781 A 100 100 0 0 1 -6.279051952931054 -99.80267284282718 L -3.7674311717586324 -59.88160370569631 A 60 60 0 0 0 -7.519994013858117 -59.52688207886869" fill="#FEBECC" stroke="black" stroke-width="0.2pt"></path>
	<text font-size="2.3pt" font-family="Arial, Sans serif" fill="black" x="97.7" y="1.15" text-anchor="end" transform="rotate(264.60000000000014 0,0)">Watery</text>
	<path d="M -3.7674311717586324 -59.88160370569631 L -6.279051952931054 -99.80267284282718 A 100 100 0 0 1 2.4808382392282725e-13 -100 L 1.4885029435369635e-13 -60 A 60 60 0 0 0 -3.7674311717586324 -59.88160370569631" fill="#FFBDC8" stroke="black" stroke-width="0.2pt"></path>
	<text font-size="2.3pt" font-family="Arial, Sans serif" fill="black" x="97.7" y="1.15" text-anchor="end" transform="rotate(268.20000000000016 0,0)">Characterless</text>
	<path d="M 1.4885029435369635e-13 -60 L 2.4808382392282725e-13 -100 A 100 100 0 0 1 6.279051952931638 -99.80267284282714 L 3.7674311717589832 -59.88160370569628 A 60 60 0 0 0 1.4885029435369635e-13 -60" fill="#FFBFC5" stroke="black" stroke-width="0.2pt"></path>
	<text font-size="2.3pt" font-family="Arial, Sans serif" fill="black" x="97.7" y="1.15" text-anchor="end" transform="rotate(271.8000000000002 0,0)">Satiating</text>
	<path d="M 3.7674311717589832 -59.88160370569628 L 6.279051952931638 -99.80267284282714 A 100 100 0 0 1 12.533323356430687 -99.21147013144775 L 7.519994013858412 -59.52688207886865 A 60 60 0 0 0 3.7674311717589832 -59.88160370569628" fill="#FFC0C1" stroke="black" stroke-width="0.2pt"></path>
	<text font-size="2.3pt" font-family="Arial, Sans serif" fill="black" x="97.7" y="1.15" text-anchor="end" transform="rotate(275.40000000000015 0,0)">Thick</text>
	<path d="M 7.519994013858412 -59.52688207886865 L 12.533323356430687 -99.21147013144775 A 100 100 0 0 1 18.738131458572777 -98.22872507286881 L 11.242878875143665 -58.93723504372128 A 60 60 0 0 0 7.519994013858412 -59.52688207886865" fill="#FCC0BF" stroke="black" stroke-width="0.2pt"></path>
	<text font-size="2.3pt" font-family="Arial, Sans serif" fill="black" x="97.7" y="1.15" text-anchor="end" transform="rotate(279.00000000000017 0,0)">Spicy</text>
	<path d="M 11.242878875143665 -58.93723504372128 L 18.738131458572777 -98.22872507286881 A 100 100 0 0 1 24.868988716485752 -96.85831611286304 L 14.92139322989145 -58.11498966771782 A 60 60 0 0 0 11.242878875143665 -58.93723504372128" fill="#FEC5C1" stroke="black" stroke-width="0.2pt"></path>
	<text font-size="2.3pt" font-family="Arial, Sans serif" fill="black" x="97.7" y="1.15" text-anchor="end" transform="rotate(282.6000000000002 0,0)">Vinous</text>
	<path d="M 14.92139322989145 -58.11498966771782 L 24.868988716485752 -96.85831611286304 A 100 100 0 0 1 30.90169943749498 -95.1056516295153 L 18.541019662496986 -57.06339097770917 A 60 60 0 0 0 14.92139322989145 -58.11498966771782" fill="#FCC8C2" stroke="black" stroke-width="0.2pt"></path>
	<text font-size="2.3pt" font-family="Arial, Sans serif" fill="black" x="97.7" y="1.15" text-anchor="end" transform="rotate(286.20000000000016 0,0)">Plastics</text>
	<path d="M 18.541019662496986 -57.06339097770917 L 30.90169943749498 -95.1056516295153 A 100 100 0 0 1 36.81245526846808 -92.97764858882503 L 22.087473161080844 -55.78658915329502 A 60 60 0 0 0 18.541019662496986 -57.06339097770917" fill="#FCCDBF" stroke="black" stroke-width="0.2pt"></path>
	<text font-size="2.3pt" font-family="Arial, Sans serif" fill="black" x="97.7" y="1.15" text-anchor="end" transform="rotate(289.8000000000002 0,0)">Can-liner</text>
	<path d="M 22.087473161080844 -55.78658915329502 L 36.81245526846808 -92.97764858882503 A 100 100 0 0 1 42.5779291565075 -90.48270524660184 L 25.546757493904504 -54.2896231479611 A 60 60 0 0 0 22.087473161080844 -55.78658915329502" fill="#FED2BE" stroke="black" stroke-width="0.2pt"></path>
	<text font-size="2.3pt" font-family="Arial, Sans serif" fill="black" x="97.7" y="1.15" text-anchor="end" transform="rotate(293.4000000000002 0,0)">Laquer-like</text>
	<path d="M 25.546757493904504 -54.2896231479611 L 42.5779291565075 -90.48270524660184 A 100 100 0 0 1 48.1753674101718 -87.63066800438621 L 28.905220446103083 -52.57840080263172 A 60 60 0 0 0 25.546757493904504 -54.2896231479611" fill="#FED4BE" stroke="black" stroke-width="0.2pt"></path>
	<text font-size="2.3pt" font-family="Arial, Sans serif" fill="black" x="97.7" y="1.15" text-anchor="end" transform="rotate(297.00000000000017 0,0)">Isoamyl acetate</text>
	<path d="M 28.905220446103083 -52.57840080263172 L 48.1753674101718 -87.63066800438621 A 100 100 0 0 1 53.582679497899896 -84.43279255020136 L 32.14960769873994 -50.65967553012081 A 60 60 0 0 0 28.905220446103083 -52.57840080263172" fill="#FFD7BE" stroke="black" stroke-width="0.2pt"></path>
	<text font-size="2.3pt" font-family="Arial, Sans serif" fill="black" x="97.7" y="1.15" text-anchor="end" transform="rotate(300.6000000000002 0,0)">Ethyl hexanoate</text>
	<path d="M 32.14960769873994 -50.65967553012081 L 53.582679497899896 -84.43279255020136 A 100 100 0 0 1 58.77852522924758 -80.90169943749454 L 35.26711513754855 -48.54101966249673 A 60 60 0 0 0 32.14960769873994 -50.65967553012081" fill="#FEDCBF" stroke="black" stroke-width="0.2pt"></path>
	<text font-size="2.3pt" font-family="Arial, Sans serif" fill="black" x="97.7" y="1.15" text-anchor="end" transform="rotate(304.2000000000002 0,0)">Ethyl acetate</text>
	<path d="M 35.26711513754855 -48.54101966249673 L 58.77852522924758 -80.90169943749454 A 100 100 0 0 1 63.7423989748692 -77.05132427757874 L 38.24543938492152 -46.23079456654724 A 60 60 0 0 0 35.26711513754855 -48.54101966249673" fill="#FEE1BF" stroke="black" stroke-width="0.2pt"></path>
	<text font-size="2.3pt" font-family="Arial, Sans serif" fill="black" x="97.7" y="1.15" text-anchor="end" transform="rotate(307.8000000000002 0,0)">Citrus</text>
	<path d="M 38.24543938492152 -46.23079456654724 L 63.7423989748692 -77.05132427757874 A 100 100 0 0 1 68.45471059286913 -72.89686274214091 L 41.072826355721475 -43.73811764528455 A 60 60 0 0 0 38.24543938492152 -46.23079456654724" fill="#FEE1C0" stroke="black" stroke-width="0.2pt"></path>
	<text font-size="2.3pt" font-family="Arial, Sans serif" fill="black" x="97.7" y="1.15" text-anchor="end" transform="rotate(311.4000000000002 0,0)">Apple</text>
	<path d="M 41.072826355721475 -43.73811764528455 L 68.45471059286913 -72.89686274214091 A 100 100 0 0 1 72.89686274214137 -68.45471059286864 L 43.73811764528482 -41.07282635572118 A 60 60 0 0 0 41.072826355721475 -43.73811764528455" fill="#FEE8BF" stroke="black" stroke-width="0.2pt"></path>
	<text font-size="2.3pt" font-family="Arial, Sans serif" fill="black" x="97.7" y="1.15" text-anchor="end" transform="rotate(315.0000000000002 0,0)">Banana</text>
	<path d="M 43.73811764528482 -41.07282635572118 L 72.89686274214137 -68.45471059286864 A 100 100 0 0 1 77.05132427757916 -63.742398974868685 L 46.230794566547495 -38.24543938492121 A 60 60 0 0 0 43.73811764528482 -41.07282635572118" fill="#FDEAC1" stroke="black" stroke-width="0.2pt"></path>
	<text font-size="2.3pt" font-family="Arial, Sans serif" fill="black" x="97.7" y="1.15" text-anchor="end" transform="rotate(318.6000000000002 0,0)">Black currant</text>
	<path d="M 46.230794566547495 -38.24543938492121 L 77.05132427757916 -63.742398974868685 A 100 100 0 0 1 80.90169943749494 -58.778525229247045 L 48.54101966249696 -35.26711513754823 A 60 60 0 0 0 46.230794566547495 -38.24543938492121" fill="#FDEFBE" stroke="black" stroke-width="0.2pt"></path>
	<text font-size="2.3pt" font-family="Arial, Sans serif" fill="black" x="97.7" y="1.15" text-anchor="end" transform="rotate(322.2000000000002 0,0)">Melory</text>
	<path d="M 48.54101966249696 -35.26711513754823 L 80.90169943749494 -58.778525229247045 A 100 100 0 0 1 84.43279255020173 -53.582679497899335 L 50.65967553012103 -32.1496076987396 A 60 60 0 0 0 48.54101966249696 -35.26711513754823" fill="#FEF3BF" stroke="black" stroke-width="0.2pt"></path>
	<text font-size="2.3pt" font-family="Arial, Sans serif" fill="black" x="97.7" y="1.15" text-anchor="end" transform="rotate(325.8000000000002 0,0)">Pear</text>
	<path d="M 50.65967553012103 -32.1496076987396 L 84.43279255020173 -53.582679497899335 A 100 100 0 0 1 87.63066800438652 -48.17536741017122 L 52.57840080263192 -28.90522044610273 A 60 60 0 0 0 50.65967553012103 -32.1496076987396" fill="#FEF7BE" stroke="black" stroke-width="0.2pt"></path>
	<text font-size="2.3pt" font-family="Arial, Sans serif" fill="black" x="97.7" y="1.15" text-anchor="end" transform="rotate(329.4000000000002 0,0)">Raspberry</text>
	<path d="M 52.57840080263192 -28.90522044610273 L 87.63066800438652 -48.17536741017122 A 100 100 0 0 1 90.4827052466021 -42.577929156506976 L 54.28962314796125 -25.546757493904188 A 60 60 0 0 0 52.57840080263192 -28.90522044610273" fill="#FFFAC1" stroke="black" stroke-width="0.2pt"></path>
	<text font-size="2.3pt" font-family="Arial, Sans serif" fill="black" x="97.7" y="1.15" text-anchor="end" transform="rotate(333.0000000000002 0,0)">Strawberry</text>
	<path d="M 18.096541049320418 -8.515585831301395 L 90.4827052466021 -42.577929156506976 A 100 100 0 0 1 92.97764858882528 -36.81245526846745 L 18.595529717765057 -7.362491053693491 A 20 20 0 0 0 18.096541049320418 -8.515585831301395" fill="#FFFE80" stroke="black" stroke-width="0.4pt"></path>
	<text font-size="2.3pt" font-family="Arial, Sans serif" fill="black" x="97.7" y="1.15" text-anchor="end" transform="rotate(336.6000000000002 0,0)">Acetaldehyde</text>
	<path d="M 55.78658915329517 -22.08747316108047 L 92.97764858882528 -36.81245526846745 A 100 100 0 0 1 95.10565162951546 -30.90169943749443 L 57.063390977709275 -18.54101966249666 A 60 60 0 0 0 55.78658915329517 -22.08747316108047" fill="#FEFCC4" stroke="black" stroke-width="0.2pt"></path>
	<text font-size="2.3pt" font-family="Arial, Sans serif" fill="black" x="97.7" y="1.15" text-anchor="end" transform="rotate(340.2000000000002 0,0)">2-Phenylethanol</text>
	<path d="M 57.063390977709275 -18.54101966249666 L 95.10565162951546 -30.90169943749443 A 100 100 0 0 1 96.8583161128632 -24.868988716485106 L 58.11498966771792 -14.921393229891063 A 60 60 0 0 0 57.063390977709275 -18.54101966249666" fill="#FAFEC0" stroke="black" stroke-width="0.2pt"></path>
	<text font-size="2.3pt" font-family="Arial, Sans serif" fill="black" x="97.7" y="1.15" text-anchor="end" transform="rotate(343.80000000000024 0,0)">Geraniol</text>
	<path d="M 58.11498966771792 -14.921393229891063 L 96.8583161128632 -24.868988716485106 A 100 100 0 0 1 98.22872507286894 -18.73813145857212 L 58.937235043721365 -11.242878875143271 A 60 60 0 0 0 58.11498966771792 -14.921393229891063" fill="#F3FDBF" stroke="black" stroke-width="0.2pt"></path>
	<text font-size="2.3pt" font-family="Arial, Sans serif" fill="black" x="97.7" y="1.15" text-anchor="end" transform="rotate(347.4000000000002 0,0)">Perfumy</text>
	<path d="M 58.937235043721365 -11.242878875143271 L 98.22872507286894 -18.73813145857212 A 100 100 0 0 1 99.21147013144783 -12.533323356430026 L 59.5268820788687 -7.519994013858016 A 60 60 0 0 0 58.937235043721365 -11.242878875143271" fill="#F0FEC1" stroke="black" stroke-width="0.2pt"></path>
	<text font-size="2.3pt" font-family="Arial, Sans serif" fill="black" x="97.7" y="1.15" text-anchor="end" transform="rotate(351.0000000000002 0,0)">Kettle-hop</text>
	<path d="M 59.5268820788687 -7.519994013858016 L 99.21147013144783 -12.533323356430026 A 100 100 0 0 1 99.80267284282718 -6.279051952930972 L 59.88160370569631 -3.7674311717585836 A 60 60 0 0 0 59.5268820788687 -7.519994013858016" fill="#ECFEBE" stroke="black" stroke-width="0.2pt"></path>
	<text font-size="2.3pt" font-family="Arial, Sans serif" fill="black" x="97.7" y="1.15" text-anchor="end" transform="rotate(354.60000000000025 0,0)">Dry-hop</text>
	<path d="M 59.88160370569631 -3.7674311717585836 L 99.80267284282718 -6.279051952930972 A 100 100 0 0 1 100 4.195962738671156e-13 L 60 2.5175776432026935e-13 A 60 60 0 0 0 59.88160370569631 -3.7674311717585836" fill="#E7FFBE" stroke="black" stroke-width="0.2pt"></path>
	<text font-size="2.3pt" font-family="Arial, Sans serif" fill="black" x="97.7" y="1.15" text-anchor="end" transform="rotate(358.2000000000002 0,0)">Hop oil</text>
	<path d="M 50 0 L 60 0 A 60 60 0 0 1 52.57840080263181 28.90522044610292 L 43.81533400219318 24.087683705085766 A 50 50 0 0 0 50 0" fill="#73F519" stroke="black" stroke-width="0.4pt"></path>
	<path d="M 53.85 0 A 53.85 53.85 0 0 1 47.189114720362056 25.94243535037737" fill="none" stroke="none" stroke-width="0.4pt" id="textPath0"></path>
	<text font-size="2.3pt" font-family="Arial, Sans serif" fill="black" font-weight="bold" text-anchor="middle">
		<textPath xlink:href="#textPath0" startOffset="50%">Vegetal</textPath>
	</text>
	<path d="M 43.81533400219318 24.087683705085766 L 52.57840080263181 28.90522044610292 A 60 60 0 0 1 41.072826355721325 43.738117645284696 L 34.22735529643444 36.448431371070576 A 50 50 0 0 0 43.81533400219318 24.087683705085766" fill="#28F41C" stroke="black" stroke-width="0.4pt"></path>
	<path d="M 47.189114720362056 25.94243535037737 A 53.85 53.85 0 0 1 36.86286165425989 39.254960586643016" fill="none" stroke="none" stroke-width="0.4pt" id="textPath1"></path>
	<text font-size="2.3pt" font-family="Arial, Sans serif" fill="black" font-weight="bold" text-anchor="middle">
		<textPath xlink:href="#textPath1" startOffset="50%">Cereal</textPath>
	</text>
	<path d="M 34.22735529643444 36.448431371070576 L 41.072826355721325 43.738117645284696 A 60 60 0 0 1 25.54675749390436 54.28962314796117 L 21.288964578253633 45.241352623300976 A 50 50 0 0 0 34.22735529643444 36.448431371070576" fill="#1CF568" stroke="black" stroke-width="0.4pt"></path>
	<path d="M 36.86286165425989 39.254960586643016 A 53.85 53.85 0 0 1 22.928214850779163 48.724936775295156" fill="none" stroke="none" stroke-width="0.4pt" id="textPath2"></path>
	<text font-size="2.3pt" font-family="Arial, Sans serif" fill="black" font-weight="bold" text-anchor="middle">
		<textPath xlink:href="#textPath2" startOffset="50%">Maillard</textPath>
	</text>
	<path d="M 6.266661678215213 49.60573506572389 L 7.5199940138582555 59.526882078868674 A 60 60 0 0 1 -22.087473161080677 55.78658915329509 L -18.4062276342339 46.488824294412574 A 50 50 0 0 0 6.266661678215213 49.60573506572389" fill="#14F9EB" stroke="black" stroke-width="0.4pt"></path>
	<path d="M 6.7491946274377845 53.42537666578463 A 53.85 53.85 0 0 1 -19.82350716206991 50.06846376508234" fill="none" stroke="none" stroke-width="0.4pt" id="textPath3"></path>
	<text font-size="2.3pt" font-family="Arial, Sans serif" fill="black" font-weight="bold" text-anchor="middle">
		<textPath xlink:href="#textPath3" startOffset="50%">Fatty</textPath>
	</text>
	<path d="M -18.4062276342339 46.488824294412574 L -22.087473161080677 55.78658915329509 A 60 60 0 0 1 -58.93723504372132 11.242878875143475 L -49.114362536434435 9.369065729286229 A 50 50 0 0 0 -18.4062276342339 46.488824294412574" fill="#1351F8" stroke="black" stroke-width="0.4pt"></path>
	<path d="M -19.82350716206991 50.06846376508234 A 53.85 53.85 0 0 1 -52.89616845173989 10.090483790441269" fill="none" stroke="none" stroke-width="0.4pt" id="textPath4"></path>
	<text font-size="2.3pt" font-family="Arial, Sans serif" fill="black" font-weight="bold" text-anchor="middle">
		<textPath xlink:href="#textPath4" startOffset="50%">Sulfury</textPath>
	</text>
	<path d="M -49.114362536434435 9.369065729286229 L -58.93723504372132 11.242878875143475 A 60 60 0 0 1 -59.526882078868674 -7.519994013858257 L -49.60573506572389 -6.266661678215215 A 50 50 0 0 0 -49.114362536434435 9.369065729286229" fill="#6927F3" stroke="black" stroke-width="0.4pt"></path>
	<path d="M -52.89616845173989 10.090483790441269 A 53.85 53.85 0 0 1 -53.42537666578463 -6.749194627437786" fill="none" stroke="none" stroke-width="0.4pt" id="textPath5"></path>
	<text font-size="2.3pt" font-family="Arial, Sans serif" fill="black" font-weight="bold" text-anchor="middle">
		<textPath xlink:href="#textPath5" startOffset="50%">Stale</textPath>
	</text>
	<path d="M -36.448431371070576 -34.22735529643444 L -43.738117645284696 -41.072826355721325 A 60 60 0 0 1 -7.519994013858275 -59.52688207886867 L -6.26666167821523 -49.60573506572389 A 50 50 0 0 0 -36.448431371070576 -34.22735529643444" fill="#F6159D" stroke="black" stroke-width="0.4pt"></path>
	<path d="M -39.254960586643016 -36.86286165425989 A 53.85 53.85 0 0 1 -6.749194627437802 -53.425376665784626" fill="none" stroke="none" stroke-width="0.4pt" id="textPath6"></path>
	<text font-size="2.3pt" font-family="Arial, Sans serif" fill="black" font-weight="bold" text-anchor="middle">
		<textPath xlink:href="#textPath6" startOffset="50%">Mouthfeel</textPath>
	</text>
	<path d="M -6.26666167821523 -49.60573506572389 L -7.519994013858275 -59.52688207886867 A 60 60 0 0 1 7.519994013858254 -59.526882078868674 L 6.266661678215211 -49.60573506572389 A 50 50 0 0 0 -6.26666167821523 -49.60573506572389" fill="#F61C34" stroke="black" stroke-width="0.4pt"></path>
	<path d="M -6.749194627437802 -53.425376665784626 A 53.85 53.85 0 0 1 6.749194627437783 -53.42537666578463" fill="none" stroke="none" stroke-width="0.4pt" id="textPath7"></path>
	<text font-size="2.3pt" font-family="Arial, Sans serif" fill="black" font-weight="bold" text-anchor="middle">
		<textPath xlink:href="#textPath7" startOffset="50%">Fullness</textPath>
	</text>
	<path d="M 6.266661678215211 -49.60573506572389 L 7.519994013858254 -59.526882078868674 A 60 60 0 0 1 60 -1.469576158976824e-14 L 50 -1.2246467991473532e-14 A 50 50 0 0 0 6.266661678215211 -49.60573506572389" fill="#F8B217" stroke="black" stroke-width="0.4pt"></path>
	<path d="M 6.749194627437783 -53.42537666578463 A 53.85 53.85 0 0 1 53.85 -1.3189446026816994e-14" fill="none" stroke="none" stroke-width="0.4pt" id="textPath8"></path>
	<text font-size="2.3pt" font-family="Arial, Sans serif" fill="black" font-weight="bold" text-anchor="middle">
		<textPath xlink:href="#textPath8" startOffset="50%">Aromatic, Fragrant, Fruity, Floral</textPath>
	</text>
	<path d="M 20 0 L 50 0 A 50 50 0 0 1 49.60573506572389 6.266661678215213 L 19.842294026289558 2.506664671286085 A 20 20 0 0 0 20 0" fill="#C6FE81" stroke="black" stroke-width="0.2pt"></path>
	<text font-size="2.3pt" font-family="Arial, Sans serif" fill="black" x="47.7" y="1.15" text-anchor="end" transform="rotate(3.6 0,0)">Resinous</text>
	<path d="M 19.842294026289558 2.506664671286085 L 49.60573506572389 6.266661678215213 A 50 50 0 0 1 46.488824294412574 18.406227634233897 L 18.59552971776503 7.362491053693558 A 20 20 0 0 0 19.842294026289558 2.506664671286085" fill="#AFFF82" stroke="black" stroke-width="0.2pt"></path>
	<text font-size="2.3pt" font-family="Arial, Sans serif" fill="black" x="47.7" y="1.15" text-anchor="end" transform="rotate(14.399999999999999 0,0)">Nutty</text>
	<path d="M 18.59552971776503 7.362491053693558 L 46.488824294412574 18.406227634233897 A 50 50 0 0 1 43.81533400219318 24.087683705085766 L 17.526133600877273 9.635073482034306 A 20 20 0 0 0 18.59552971776503 7.362491053693558" fill="#94F977" stroke="black" stroke-width="0.2pt"></path>
	<text font-size="2.3pt" font-family="Arial, Sans serif" fill="black" x="47.7" y="1.15" text-anchor="end" transform="rotate(25.200000000000003 0,0)">Grassy</text>
	<path d="M 17.526133600877273 9.635073482034306 L 43.81533400219318 24.087683705085766 A 50 50 0 0 1 38.525662138789464 31.87119948743448 L 15.410264855515784 12.748479794973793 A 20 20 0 0 0 17.526133600877273 9.635073482034306" fill="#87FE7C" stroke="black" stroke-width="0.2pt"></path>
	<text font-size="2.3pt" font-family="Arial, Sans serif" fill="black" x="47.7" y="1.15" text-anchor="end" transform="rotate(34.2 0,0)">Grainy</text>
	<path d="M 13.690942118573775 14.579372548428232 L 34.22735529643444 36.448431371070576 A 50 50 0 0 1 29.389262614623657 40.45084971874737 L 11.755705045849464 16.18033988749895 A 20 20 0 0 0 13.690942118573775 14.579372548428232" fill="#81FF9B" stroke="black" stroke-width="0.2pt"></path>
	<text font-size="2.3pt" font-family="Arial, Sans serif" fill="black" x="47.7" y="1.15" text-anchor="end" transform="rotate(50.400000000000006 0,0)">Caramel</text>
	<path d="M 11.755705045849464 16.18033988749895 L 29.389262614623657 40.45084971874737 A 50 50 0 0 1 21.288964578253633 45.241352623300976 L 8.515585831301454 18.096541049320393 A 20 20 0 0 0 11.755705045849464 16.18033988749895" fill="#80FFAE" stroke="black" stroke-width="0.2pt"></path>
	<text font-size="2.3pt" font-family="Arial, Sans serif" fill="black" x="47.7" y="1.15" text-anchor="end" transform="rotate(59.39999999999999 0,0)">Burut</text>
	<path d="M 8.515585831301454 18.096541049320393 L 25.54675749390436 54.28962314796117 A 60 60 0 0 1 7.5199940138582555 59.526882078868674 L 2.506664671286085 19.842294026289558 A 20 20 0 0 0 8.515585831301454 18.096541049320393" fill="#00FE9B" stroke="black" stroke-width="0.4pt"></path>
	<text font-size="2.3pt" font-family="Arial, Sans serif" fill="black" font-weight="bold" x="57.7" y="1.15" text-anchor="end" transform="rotate(73.80000000000001 0,0)">Phenolic</text>
	<path d="M 2.506664671286085 19.842294026289558 L 6.266661678215213 49.60573506572389 A 50 50 0 0 1 -6.266661678215218 49.60573506572389 L -2.5066646712860874 19.842294026289554 A 20 20 0 0 0 2.506664671286085 19.842294026289558" fill="#80FEF2" stroke="black" stroke-width="0.2pt"></path>
	<text font-size="2.3pt" font-family="Arial, Sans serif" fill="black" x="47.7" y="1.15" text-anchor="end" transform="rotate(90 0,0)">Fatty acid</text>
	<path d="M -4.973797743297093 19.371663222572625 L -12.43449435824273 48.42915805643156 A 50 50 0 0 1 -18.4062276342339 46.488824294412574 L -7.362491053693559 18.59552971776503 A 20 20 0 0 0 -4.973797743297093 19.371663222572625" fill="#82E8FF" stroke="black" stroke-width="0.2pt"></path>
	<text font-size="2.3pt" font-family="Arial, Sans serif" fill="black" x="47.7" y="1.15" text-anchor="end" transform="rotate(108 0,0)">Oily</text>
	<path d="M -7.362491053693559 18.59552971776503 L -18.4062276342339 46.488824294412574 A 50 50 0 0 1 -24.087683705085773 43.815334002193175 L -9.635073482034308 17.52613360087727 A 20 20 0 0 0 -7.362491053693559 18.59552971776503" fill="#81DBFF" stroke="black" stroke-width="0.2pt"></path>
	<text font-size="2.3pt" font-family="Arial, Sans serif" fill="black" x="47.7" y="1.15" text-anchor="end" transform="rotate(115.2 0,0)">Sulfitic</text>
	<path d="M -9.635073482034308 17.52613360087727 L -24.087683705085773 43.815334002193175 A 50 50 0 0 1 -40.450849718747364 29.38926261462366 L -16.180339887498945 11.755705045849465 A 20 20 0 0 0 -9.635073482034308 17.52613360087727" fill="#81B7FF" stroke="black" stroke-width="0.2pt"></path>
	<text font-size="2.3pt" font-family="Arial, Sans serif" fill="black" x="47.7" y="1.15" text-anchor="end" transform="rotate(131.4 0,0)">Sulfidic</text>
	<path d="M -16.180339887498945 11.755705045849465 L -40.450849718747364 29.38926261462366 A 50 50 0 0 1 -48.429158056431554 12.434494358242741 L -19.37166322257262 4.973797743297096 A 20 20 0 0 0 -16.180339887498945 11.755705045849465" fill="#8084FF" stroke="black" stroke-width="0.2pt"></path>
	<text font-size="2.3pt" font-family="Arial, Sans serif" fill="black" x="47.7" y="1.15" text-anchor="end" transform="rotate(154.8 0,0)">Cooked vegetable</text>
	<path d="M -20 2.4492935982947065e-15 L -50 6.123233995736766e-15 A 50 50 0 0 1 -49.60573506572389 -6.266661678215215 L -19.842294026289558 -2.5066646712860856 A 20 20 0 0 0 -20 2.4492935982947065e-15" fill="#B780FF" stroke="black" stroke-width="0.2pt"></path>
	<text font-size="2.3pt" font-family="Arial, Sans serif" fill="black" x="47.7" y="1.15" text-anchor="end" transform="rotate(183.6 0,0)">Moldy</text>
	<path d="M -19.842294026289558 -2.5066646712860856 L -59.526882078868674 -7.519994013858257 A 60 60 0 0 1 -58.114989667717865 -14.9213932298913 L -19.37166322257262 -4.973797743297101 A 20 20 0 0 0 -19.842294026289558 -2.5066646712860856" fill="#9100FD" stroke="black" stroke-width="0.4pt"></path>
	<text font-size="2.3pt" font-family="Arial, Sans serif" fill="black" font-weight="bold" x="57.7" y="1.15" text-anchor="end" transform="rotate(190.8 0,0)">Acidic</text>
	<path d="M -19.37166322257262 -4.973797743297101 L -58.114989667717865 -14.9213932298913 A 60 60 0 0 1 -48.54101966249685 -35.26711513754838 L -16.18033988749895 -11.75570504584946 A 20 20 0 0 0 -19.37166322257262 -4.973797743297101" fill="#CC00FF" stroke="black" stroke-width="0.4pt"></path>
	<text font-size="2.3pt" font-family="Arial, Sans serif" fill="black" font-weight="bold" x="57.7" y="1.15" text-anchor="end" transform="rotate(205.20000000000002 0,0)">Sweet</text>
	<path d="M -11.755705045849465 -16.180339887498945 L -29.38926261462366 -40.450849718747364 A 50 50 0 0 1 -21.28896457825361 -45.24135262330099 L -8.515585831301443 -18.096541049320397 A 20 20 0 0 0 -11.755705045849465 -16.180339887498945" fill="#FD80CF" stroke="black" stroke-width="0.2pt"></path>
	<text font-size="2.3pt" font-family="Arial, Sans serif" fill="black" x="47.7" y="1.15" text-anchor="end" transform="rotate(239.4 0,0)">Astringent</text>
	<path d="M -7.362491053693557 -18.59552971776503 L -18.40622763423389 -46.488824294412574 A 50 50 0 0 1 -12.434494358242764 -48.42915805643155 L -4.973797743297106 -19.371663222572618 A 20 20 0 0 0 -7.362491053693557 -18.59552971776503" fill="#FB82B5" stroke="black" stroke-width="0.2pt"></path>
	<text font-size="2.3pt" font-family="Arial, Sans serif" fill="black" x="47.7" y="1.15" text-anchor="end" transform="rotate(251.99999999999997 0,0)">Carbonation</text>
	<path d="M -4.973797743297106 -19.371663222572618 L -12.434494358242764 -48.42915805643155 A 50 50 0 0 1 -6.26666167821523 -49.60573506572389 L -2.506664671286092 -19.842294026289554 A 20 20 0 0 0 -4.973797743297106 -19.371663222572618" fill="#FA81A7" stroke="black" stroke-width="0.2pt"></path>
	<text font-size="2.3pt" font-family="Arial, Sans serif" fill="black" x="47.7" y="1.15" text-anchor="end" transform="rotate(259.2 0,0)">Warming</text>
	<path d="M -2.506664671286092 -19.842294026289554 L -6.26666167821523 -49.60573506572389 A 50 50 0 0 1 6.266661678215211 -49.60573506572389 L 2.5066646712860847 -19.842294026289558 A 20 20 0 0 0 -2.506664671286092 -19.842294026289554" fill="#FF8091" stroke="black" stroke-width="0.2pt"></path>
	<text font-size="2.3pt" font-family="Arial, Sans serif" fill="black" x="47.7" y="1.15" text-anchor="end" transform="rotate(270 0,0)">Body</text>
	<path d="M 2.5066646712860847 -19.842294026289558 L 6.266661678215211 -49.60573506572389 A 50 50 0 0 1 12.434494358242747 -48.429158056431554 L 4.973797743297099 -19.37166322257262 A 20 20 0 0 0 2.5066646712860847 -19.842294026289558" fill="#FD8780" stroke="black" stroke-width="0.2pt"></path>
	<text font-size="2.3pt" font-family="Arial, Sans serif" fill="black" x="47.7" y="1.15" text-anchor="end" transform="rotate(280.8 0,0)">Alcoholic</text>
	<path d="M 4.973797743297099 -19.37166322257262 L 12.434494358242747 -48.429158056431554 A 50 50 0 0 1 21.28896457825363 -45.241352623300976 L 8.515585831301452 -18.096541049320393 A 20 20 0 0 0 4.973797743297099 -19.37166322257262" fill="#FF9980" stroke="black" stroke-width="0.2pt"></path>
	<text font-size="2.3pt" font-family="Arial, Sans serif" fill="black" x="47.7" y="1.15" text-anchor="end" transform="rotate(289.8 0,0)">Solvent-like</text>
	<path d="M 8.515585831301452 -18.096541049320393 L 21.28896457825363 -45.241352623300976 A 50 50 0 0 1 29.389262614623647 -40.45084971874738 L 11.755705045849458 -16.180339887498953 A 20 20 0 0 0 8.515585831301452 -18.096541049320393" fill="#FEB180" stroke="black" stroke-width="0.2pt"></path>
	<text font-size="2.3pt" font-family="Arial, Sans serif" fill="black" x="47.7" y="1.15" text-anchor="end" transform="rotate(300.59999999999997 0,0)">Estery</text>
	<path d="M 11.755705045849458 -16.180339887498953 L 29.389262614623647 -40.45084971874738 A 50 50 0 0 1 45.24135262330098 -21.288964578253612 L 18.096541049320393 -8.515585831301443 A 20 20 0 0 0 11.755705045849458 -16.180339887498953" fill="#FEDB7F" stroke="black" stroke-width="0.2pt"></path>
	<text font-size="2.3pt" font-family="Arial, Sans serif" fill="black" x="47.7" y="1.15" text-anchor="end" transform="rotate(320.4 0,0)">Fruity</text>
	<path d="M 18.59552971776503 -7.3624910536935575 L 46.488824294412574 -18.406227634233893 A 50 50 0 0 1 49.114362536434435 -9.369065729286234 L 19.645745014573773 -3.747626291714494 A 20 20 0 0 0 18.59552971776503 -7.3624910536935575" fill="#F0FF80" stroke="black" stroke-width="0.2pt"></path>
	<text font-size="2.3pt" font-family="Arial, Sans serif" fill="black" x="47.7" y="1.15" text-anchor="end" transform="rotate(343.8 0,0)">Floral</text>
	<path d="M 19.645745014573773 -3.747626291714494 L 49.114362536434435 -9.369065729286234 A 50 50 0 0 1 50 -1.2246467991473532e-14 L 20 -4.898587196589413e-15 A 20 20 0 0 0 19.645745014573773 -3.747626291714494" fill="#DAFE81" stroke="black" stroke-width="0.2pt"></path>
	<text font-size="2.3pt" font-family="Arial, Sans serif" fill="black" x="47.7" y="1.15" text-anchor="end" transform="rotate(354.6 0,0)">Hoppy</text>
</svg>